<svg xmlns="http://www.w3.org/2000/svg" xmlns:xlink="http://www.w3.org/1999/xlink" width="105.466" height="36.646"
    viewBox="0 0 105.466 36.646">
    <defs>
        <clipPath id="a">
            <path d="M0,17H105.466V-19.645H0Z" transform="translate(0 19.645)" />
        </clipPath>
    </defs>
    <g transform="translate(0 19.645)">
        <g transform="translate(51.193 -19.645)">
            <path d="M7.425,0-5.127,17.986-5.163,1.707V0H-8.58l.037,23.408v1.7h2.6L6.611,7.129V25.113h3.414V0Z"
                transform="translate(8.58)" />
        </g>
        <g transform="translate(0 -19.645)" clip-path="url(#a)">
            <g transform="translate(25.712 0.027)">
                <path
                    d="M8.592,10.625C7.24,6.085,5.872,2.912,4.527,1.178a6.977,6.977,0,0,0,3.7-3.943,6.591,6.591,0,0,0,.451-2.373,6.674,6.674,0,0,0-2.628-5.374A7.76,7.76,0,0,0,.963-12.279l-10.856.007L-9.9-8.9H.963A4.191,4.191,0,0,1,4.516-7.259,3.454,3.454,0,0,1,5.26-5.138,3.339,3.339,0,0,1,3.369-2.077,4.8,4.8,0,0,1,1-1.428l-10.927.006-.006,14.229h3.414V1.955H.4A9.836,9.836,0,0,1,3.186,5.567a48.047,48.047,0,0,1,2.154,6l.343,1.24H9.275Z"
                    transform="translate(9.929 12.279)" />
            </g>
            <g transform="translate(76.204 0.029)">
                <path
                    d="M7.242,11.636h3.593L10.15,9.456C8.8,4.917,7.432,1.742,6.087.01a6.985,6.985,0,0,0,3.7-3.945,6.614,6.614,0,0,0,.45-2.373,6.677,6.677,0,0,0-2.626-5.374,7.76,7.76,0,0,0-5.087-1.765l-10.856.006-.006,3.376H2.521A4.194,4.194,0,0,1,6.076-8.429,3.469,3.469,0,0,1,6.82-6.308,3.343,3.343,0,0,1,4.927-3.245,4.819,4.819,0,0,1,2.562-2.6l-10.927.007,0,14.227h3.412V.786h6.92A9.844,9.844,0,0,1,4.744,4.4a47.777,47.777,0,0,1,2.154,6Z"
                    transform="translate(8.369 13.447)" />
            </g>
        </g>
        <g transform="translate(0 -19.603)">
            <path d="M0,0V3.415H7.991v21.7h3.415V3.415h7.92V0Z" />
        </g>
        <g transform="translate(0 -19.645)" clip-path="url(#a)">
            <g transform="translate(5.717 30.158)">
                <path
                    d="M1.306,0-1.117.009H-1.5V.392l-.011,2.852V6.488h.765V3.624h2.05a1.919,1.919,0,0,0,1.507-.658A1.706,1.706,0,0,0,2.593.457,1.987,1.987,0,0,0,1.306,0m.658,2.69a1.329,1.329,0,0,1-.658.172l-2.05.009V.763h2.05a1.17,1.17,0,0,1,.983.459.972.972,0,0,1,.209.6.952.952,0,0,1-.533.867"
                    transform="translate(1.509)" />
            </g>
            <g transform="translate(18.501 30.158)">
                <path
                    d="M1.687,1.606A1.787,1.787,0,0,0,2.707.567a1.661,1.661,0,0,0,.116-.6A1.69,1.69,0,0,0,2.153-1.4a1.963,1.963,0,0,0-1.3-.457l-2.414.007h-.381v.382l-.011,2.852V4.63h.765V1.768H.731a2.627,2.627,0,0,1,.774.992,12.487,12.487,0,0,1,.571,1.593l.076.276h.8L2.8,4.143A7.554,7.554,0,0,0,1.687,1.606m-.821-.6H-.354l.009.009h-.839V-1.093H.856a1.184,1.184,0,0,1,.992.457.972.972,0,0,1,.209.6.954.954,0,0,1-.533.869,1.329,1.329,0,0,1-.658.172"
                    transform="translate(1.949 1.856)" />
            </g>
        </g>
        <g transform="translate(31.476 10.513)">
            <path d="M1.947,0h-4.2V6.488H2.328V5.725H-1.487v-2.1H1.3V2.863H-1.487V.765H2.328V0Z"
                transform="translate(2.25)" />
        </g>
        <g transform="translate(0 -19.645)" clip-path="url(#a)">
            <g transform="translate(43.685 30.158)">
                <path
                    d="M1.687,2.58A2.031,2.031,0,0,1,.9,2.742,1.879,1.879,0,0,1-.641,1.93,2.709,2.709,0,0,1-1.184.261,2.611,2.611,0,0,1-.5-1.58,1.907,1.907,0,0,1,.9-2.218,2.052,2.052,0,0,1,2.3-1.685a1.572,1.572,0,0,1,.353.45l.688-.345A2.57,2.57,0,0,0,2.173-2.668,2.824,2.824,0,0,0,.9-2.981a2.576,2.576,0,0,0-1.966.9A3.32,3.32,0,0,0-1.949.261,3.321,3.321,0,0,0-1.07,2.6,2.631,2.631,0,0,0,.9,3.5a2.853,2.853,0,0,0,1.888-.726,2.6,2.6,0,0,0,.554-.647l-.668-.382a1.946,1.946,0,0,1-.992.83"
                    transform="translate(1.949 2.981)" />
            </g>
        </g>
        <g transform="translate(56.908 10.513)">
            <path d="M0,0V6.488H.763V0Z" />
        </g>
        <g transform="translate(66.01 10.513)">
            <path
                d="M1.858,0V.381L1.849,4.895-1.453.16-1.567,0h-.58V6.488h.761V1.593l3.3,4.732.114.162h.582V6.1L2.623.381V0Z"
                transform="translate(2.147)" />
        </g>
        <g transform="translate(0 -19.645)" clip-path="url(#a)">
            <g transform="translate(78.79 30.158)">
                <path
                    d="M1.687,2.58A2.031,2.031,0,0,1,.9,2.742,1.879,1.879,0,0,1-.641,1.93,2.709,2.709,0,0,1-1.184.261,2.611,2.611,0,0,1-.5-1.58,1.907,1.907,0,0,1,.9-2.218,2.052,2.052,0,0,1,2.3-1.685a1.606,1.606,0,0,1,.353.45l.688-.345A2.57,2.57,0,0,0,2.173-2.668,2.824,2.824,0,0,0,.9-2.981a2.573,2.573,0,0,0-1.966.9A3.32,3.32,0,0,0-1.949.261,3.321,3.321,0,0,0-1.07,2.6,2.625,2.625,0,0,0,.9,3.5a2.853,2.853,0,0,0,1.888-.726,2.6,2.6,0,0,0,.554-.647l-.668-.382a1.946,1.946,0,0,1-.992.83"
                    transform="translate(1.949 2.981)" />
            </g>
        </g>
        <g transform="translate(91.384 10.513)">
            <path d="M2.124,0H-2.454V.765H-.348V6.488H.417V.765H2.5V0Z" transform="translate(2.454)" />
        </g>
        <g transform="translate(96.585 -19.385)">
            <path d="M0,0V.56H1.559V4.727h.627V.56H3.749V0Z" />
        </g>
        <g transform="translate(0 -19.645)" clip-path="url(#a)">
            <g transform="translate(100.956 0.26)">
                <path
                    d="M1.7,0,.568,3.289c-.114.332-.2.586-.25.757C.27,3.893.195,3.658.09,3.348L-1.027,0h-.94V4.727h.6V.7L0,4.727H.568L1.939.77V4.727h.6V0Z"
                    transform="translate(1.967)" />
            </g>
        </g>
    </g>
</svg>