<svg xmlns="http://www.w3.org/2000/svg" width="105.466" height="36.646">
    <defs>
        <clipPath id="prefix__a">
            <path data-name="Path 63" d="M0 17h105.466v-36.645H0z" transform="translate(0 19.645)" />
        </clipPath>
    </defs>
    <g data-name="Group 123">
        <g data-name="Group 104">
            <path data-name="Path 60"
                d="M67.198 0L54.646 17.986 54.61 1.707V0h-3.417l.037 23.408v1.7h2.6L66.384 7.129v17.984h3.414V0z" />
        </g>
        <g data-name="Group 107" clip-path="url(#prefix__a)">
            <g data-name="Group 105">
                <path data-name="Path 61"
                    d="M44.233 22.931c-1.352-4.54-2.72-7.713-4.065-9.447a6.977 6.977 0 003.7-3.943 6.591 6.591 0 00.451-2.373 6.674 6.674 0 00-2.628-5.374A7.76 7.76 0 0036.604.027L25.748.034l-.007 3.372h10.863a4.191 4.191 0 013.553 1.641 3.454 3.454 0 01.744 2.121 3.339 3.339 0 01-1.891 3.061 4.8 4.8 0 01-2.369.649l-10.927.006-.006 14.229h3.414V14.261h6.919a9.836 9.836 0 012.786 3.612 48.047 48.047 0 012.154 6l.343 1.24h3.592z" />
            </g>
            <g data-name="Group 106">
                <path data-name="Path 62"
                    d="M91.815 25.112h3.593l-.685-2.18c-1.35-4.539-2.718-7.714-4.063-9.446a6.985 6.985 0 003.7-3.945 6.614 6.614 0 00.45-2.373 6.677 6.677 0 00-2.626-5.374A7.76 7.76 0 0087.097.029L76.241.035l-.006 3.376h10.859a4.194 4.194 0 013.555 1.636 3.469 3.469 0 01.744 2.121 3.343 3.343 0 01-1.893 3.063 4.819 4.819 0 01-2.365.645l-10.927.007V25.11h3.412V14.262h6.92a9.844 9.844 0 012.777 3.614 47.777 47.777 0 012.154 6z" />
            </g>
        </g>
        <g data-name="Group 108">
            <path data-name="Path 64" d="M0 .042v3.415h7.991v21.7h3.415v-21.7h7.92V.042z" />
        </g>
        <g data-name="Group 111" clip-path="url(#prefix__a)">
            <g data-name="Group 109">
                <path data-name="Path 65"
                    d="M8.532 30.158l-2.423.009h-.383v.383l-.011 2.852v3.244h.765v-2.864h2.05a1.919 1.919 0 001.507-.658 1.706 1.706 0 00-.218-2.509 1.987 1.987 0 00-1.287-.457m.658 2.69a1.329 1.329 0 01-.658.172l-2.05.009v-2.108h2.05a1.17 1.17 0 01.983.459.972.972 0 01.209.6.952.952 0 01-.533.867" />
            </g>
            <g data-name="Group 110">
                <path data-name="Path 66"
                    d="M22.137 33.62a1.787 1.787 0 001.02-1.039 1.661 1.661 0 00.116-.6 1.69 1.69 0 00-.67-1.367 1.963 1.963 0 00-1.3-.457l-2.414.007h-.381v.382l-.011 2.852v3.246h.765v-2.862h1.919a2.627 2.627 0 01.774.992 12.487 12.487 0 01.571 1.593l.076.276h.8l-.152-.486a7.554 7.554 0 00-1.113-2.537m-.821-.6h-1.22l.009.009h-.839v-2.108h2.04a1.184 1.184 0 01.992.457.972.972 0 01.209.6.954.954 0 01-.533.869 1.329 1.329 0 01-.658.172" />
            </g>
        </g>
        <g data-name="Group 112">
            <path data-name="Path 68"
                d="M35.673 30.158h-4.2v6.488h4.581v-.763h-3.815v-2.1h2.787v-.762h-2.787v-2.098h3.815v-.765z" />
        </g>
        <g data-name="Group 114">
            <g data-name="Group 113" clip-path="url(#prefix__a)">
                <path data-name="Path 69"
                    d="M47.321 35.719a2.031 2.031 0 01-.787.162 1.879 1.879 0 01-1.541-.812 2.709 2.709 0 01-.543-1.669 2.611 2.611 0 01.684-1.841 1.907 1.907 0 011.4-.638 2.052 2.052 0 011.4.533 1.572 1.572 0 01.353.45l.688-.345a2.57 2.57 0 00-1.168-1.088 2.824 2.824 0 00-1.273-.313 2.576 2.576 0 00-1.966.9 3.32 3.32 0 00-.883 2.342 3.321 3.321 0 00.879 2.339 2.631 2.631 0 001.97.9 2.853 2.853 0 001.888-.726 2.6 2.6 0 00.554-.647l-.668-.382a1.946 1.946 0 01-.992.83" />
            </g>
        </g>
        <g data-name="Group 115">
            <path data-name="Path 71" d="M56.908 30.158v6.488h.763v-6.488z" />
        </g>
        <g data-name="Group 116">
            <path data-name="Path 72"
                d="M70.015 30.158v.381l-.009 4.514-3.302-4.735-.114-.16h-.58v6.488h.761v-4.895l3.3 4.732.114.162h.582v-.387l.013-5.719v-.381z" />
        </g>
        <g data-name="Group 118">
            <g data-name="Group 117" clip-path="url(#prefix__a)">
                <path data-name="Path 73"
                    d="M82.426 35.719a2.031 2.031 0 01-.787.162 1.879 1.879 0 01-1.541-.812 2.709 2.709 0 01-.543-1.669 2.611 2.611 0 01.684-1.841 1.907 1.907 0 011.4-.638 2.052 2.052 0 011.4.533 1.606 1.606 0 01.353.45l.688-.345a2.57 2.57 0 00-1.168-1.088 2.824 2.824 0 00-1.273-.313 2.573 2.573 0 00-1.966.9 3.32 3.32 0 00-.883 2.342 3.321 3.321 0 00.879 2.339 2.625 2.625 0 001.97.9 2.853 2.853 0 001.888-.726 2.6 2.6 0 00.554-.647l-.668-.382a1.946 1.946 0 01-.992.83" />
            </g>
        </g>
        <g data-name="Group 119">
            <path data-name="Path 75" d="M95.962 30.158h-4.578v.765h2.106v5.723h.765v-5.723h2.083v-.765z" />
        </g>
        <g data-name="Group 120">
            <path data-name="Path 76" d="M96.585.26v.56h1.559v4.167h.627V.82h1.563V.26z" />
        </g>
        <g data-name="Group 122">
            <g data-name="Group 121" clip-path="url(#prefix__a)">
                <path data-name="Path 77"
                    d="M104.623.26l-1.132 3.289c-.114.332-.2.586-.25.757a32.116 32.116 0 00-.228-.698L101.896.26h-.94v4.727h.6V.96l1.367 4.027h.568l1.371-3.957v3.957h.6V.26z" />
            </g>
        </g>
    </g>
</svg>